<?xml version="1.0" encoding="UTF-8" standalone="no"?>
<!-- Created with Inkscape (http://www.inkscape.org/) -->

<svg
   width="32"
   height="32"
   viewBox="0 0 8.4666666 8.4666666"
   version="1.1"
   id="svg1"
   xmlns="http://www.w3.org/2000/svg"
   xmlns:svg="http://www.w3.org/2000/svg">
  <defs
     id="defs1" />
  <g
     id="layer1"
     transform="translate(-122.97416,-127.40404)"
     style="fill:#fcf282;fill-opacity:1">
    <path
       id="path1"
       style="fill:#fcf282;fill-opacity:1;stroke-width:0.0364927"
       d="m 127.19521,127.40405 c -1.08242,0.009 -2.1238,0.12596 -2.73058,0.40463 0,0 -1.20355,0.53837 -1.20355,2.37505 0,0.42057 -0.008,0.92346 0.005,1.45675 0.0437,1.79617 0.32937,3.56641 1.99006,4.00596 0.76571,0.20267 1.42339,0.24511 1.95285,0.21601 0.96017,-0.0532 1.49914,-0.34262 1.49914,-0.34262 l -0.0315,-0.69659 c 0,0 -0.68617,0.21653 -1.45675,0.19016 -0.76348,-0.0262 -1.56944,-0.0827 -1.69292,-1.02009 -0.0114,-0.0823 -0.0176,-0.17005 -0.0176,-0.26251 0,0 0.74982,0.18282 1.69963,0.22634 0.58078,0.0266 1.12527,-0.0337 1.67845,-0.0997 1.06085,-0.12667 1.98456,-0.78044 2.10065,-1.37769 0.18292,-0.94083 0.16795,-2.29598 0.16795,-2.29598 0,-1.83668 -1.20354,-2.37505 -1.20354,-2.37505 -0.60674,-0.27867 -1.64869,-0.39578 -2.7311,-0.40463 z m -1.22525,1.43505 c 0.45087,0 0.79228,0.17323 1.01803,0.51987 l 0.21962,0.36794 0.21963,-0.36794 c 0.22571,-0.34664 0.56711,-0.51987 1.01802,-0.51987 0.38965,0 0.70334,0.1369 0.9431,0.40411 0.23241,0.26722 0.3483,0.62863 0.3483,1.08314 v 2.22364 h -0.88109 v -2.15853 c 0,-0.45501 -0.19169,-0.68574 -0.57464,-0.68574 -0.4234,0 -0.6351,0.27372 -0.6351,0.81545 v 1.18184 h -0.87592 v -1.18184 c 0,-0.54173 -0.21221,-0.81545 -0.63562,-0.81545 -0.38294,0 -0.57464,0.23073 -0.57464,0.68574 v 2.15853 h -0.88108 v -2.22364 c 0,-0.45451 0.11584,-0.81592 0.3483,-1.08314 0.23971,-0.26721 0.5534,-0.40411 0.94309,-0.40411 z" />
  </g>
</svg>
