<?xml version="1.0" encoding="UTF-8" standalone="no"?>
<!-- Generator: Adobe Illustrator 20.0.0, SVG Export Plug-In . SVG Version: 6.00 Build 0)  -->

<svg
   version="1.1"
   id="White"
   x="0px"
   y="0px"
   viewBox="0 0 32 32"
   xml:space="preserve"
   width="32"
   height="32"
   xmlns="http://www.w3.org/2000/svg"
   xmlns:svg="http://www.w3.org/2000/svg"><defs
   id="defs1" />&#10;<style
   type="text/css"
   id="style1">&#10;	.st0{fill:#FFFFFF;}&#10;</style>&#10;<path
   class="st0"
   d="M 32,16 C 32,24.84 24.84,32 16,32 7.16,32 0,24.84 0,16 0,7.16 7.16,0 16,0 24.84,0 32,7.16 32,16 Z m -18.928,8.44 c 7.096,0 10.976,-5.88 10.976,-10.976 0,-0.168 0,-0.336 -0.008,-0.496 0.752,-0.544 1.408,-1.224 1.928,-2 -0.688,0.304 -1.432,0.512 -2.216,0.608 0.8,-0.48 1.408,-1.232 1.696,-2.136 C 24.704,9.88 23.88,10.2 23,10.376 22.296,9.624 21.296,9.16 20.184,9.16 c -2.128,0 -3.856,1.728 -3.856,3.856 0,0.304 0.032,0.6 0.104,0.88 C 13.224,13.736 10.384,12.2 8.48,9.864 8.152,10.432 7.96,11.096 7.96,11.8 c 0,1.336 0.68,2.52 1.72,3.208 -0.632,-0.016 -1.224,-0.192 -1.744,-0.48 0,0.016 0,0.032 0,0.048 0,1.872 1.328,3.424 3.096,3.784 -0.32,0.088 -0.664,0.136 -1.016,0.136 -0.248,0 -0.488,-0.024 -0.728,-0.072 0.488,1.536 1.912,2.648 3.6,2.68 -1.32,1.032 -2.984,1.648 -4.792,1.648 -0.312,0 -0.616,-0.016 -0.92,-0.056 1.688,1.104 3.72,1.744 5.896,1.744"
   id="path1"
   style="fill:#fcf282;fill-opacity:1;stroke-width:0.08" />&#10;</svg>
